<mxfile host="app.diagrams.net" agent="Mozilla/5.0 (Windows NT 10.0; Win64; x64) AppleWebKit/537.36 (KHTML, like Gecko) Chrome/131.0.0.0 Safari/537.36" version="25.0.1">
  <diagram name="Page-1" id="ljfMja4CmZ-AZTmWT0Eg">
    <mxGraphModel dx="1272" dy="544" grid="1" gridSize="10" guides="1" tooltips="1" connect="1" arrows="1" fold="1" page="1" pageScale="1" pageWidth="850" pageHeight="1100" math="0" shadow="0">
      <root>
        <mxCell id="0" />
        <mxCell id="1" parent="0" />
        <mxCell id="ltvdPR_ZTobaKSjVNCAf-1" value="" style="html=1;verticalLabelPosition=bottom;align=center;labelBackgroundColor=#ffffff;verticalAlign=top;strokeWidth=2;strokeColor=#0080F0;shadow=0;dashed=0;shape=mxgraph.ios7.icons.data;" vertex="1" parent="1">
          <mxGeometry x="685" y="80" width="90" height="110" as="geometry" />
        </mxCell>
        <mxCell id="ltvdPR_ZTobaKSjVNCAf-2" value="MySQL" style="text;html=1;align=center;verticalAlign=middle;whiteSpace=wrap;rounded=0;" vertex="1" parent="1">
          <mxGeometry x="715" y="220" width="60" height="30" as="geometry" />
        </mxCell>
        <mxCell id="ltvdPR_ZTobaKSjVNCAf-3" value="&amp;lt;/&amp;gt;" style="rounded=1;arcSize=5;fillColor=#0065FF;strokeColor=none;fontColor=#ffffff;align=center;verticalAlign=middle;whiteSpace=wrap;fontSize=14;fontStyle=1;html=1;sketch=0;" vertex="1" parent="1">
          <mxGeometry x="330" y="70" width="165" height="130" as="geometry" />
        </mxCell>
        <mxCell id="ltvdPR_ZTobaKSjVNCAf-4" value="Web&amp;nbsp;&lt;span style=&quot;background-color: initial;&quot;&gt;Server&lt;/span&gt;" style="text;html=1;align=center;verticalAlign=middle;whiteSpace=wrap;rounded=0;" vertex="1" parent="1">
          <mxGeometry x="360" y="210" width="90" height="30" as="geometry" />
        </mxCell>
        <mxCell id="ltvdPR_ZTobaKSjVNCAf-6" value="" style="image;html=1;image=img/lib/clip_art/people/Worker_Man_128x128.png" vertex="1" parent="1">
          <mxGeometry x="50" y="110" width="80" height="80" as="geometry" />
        </mxCell>
        <mxCell id="ltvdPR_ZTobaKSjVNCAf-7" value="Admin" style="text;html=1;align=center;verticalAlign=middle;whiteSpace=wrap;rounded=0;" vertex="1" parent="1">
          <mxGeometry x="60" y="190" width="60" height="30" as="geometry" />
        </mxCell>
        <mxCell id="ltvdPR_ZTobaKSjVNCAf-8" value="" style="endArrow=classic;startArrow=classic;html=1;rounded=0;entryX=0.003;entryY=0.613;entryDx=0;entryDy=0;entryPerimeter=0;" edge="1" parent="1" source="ltvdPR_ZTobaKSjVNCAf-6" target="ltvdPR_ZTobaKSjVNCAf-3">
          <mxGeometry width="50" height="50" relative="1" as="geometry">
            <mxPoint x="400" y="310" as="sourcePoint" />
            <mxPoint x="320" y="150" as="targetPoint" />
          </mxGeometry>
        </mxCell>
        <mxCell id="ltvdPR_ZTobaKSjVNCAf-9" value="" style="endArrow=classic;startArrow=classic;html=1;rounded=0;entryX=0.061;entryY=0.644;entryDx=0;entryDy=0;entryPerimeter=0;exitX=0.993;exitY=0.621;exitDx=0;exitDy=0;exitPerimeter=0;" edge="1" parent="1" source="ltvdPR_ZTobaKSjVNCAf-3" target="ltvdPR_ZTobaKSjVNCAf-1">
          <mxGeometry width="50" height="50" relative="1" as="geometry">
            <mxPoint x="400" y="310" as="sourcePoint" />
            <mxPoint x="450" y="260" as="targetPoint" />
          </mxGeometry>
        </mxCell>
        <mxCell id="ltvdPR_ZTobaKSjVNCAf-10" value="" style="html=1;verticalLabelPosition=bottom;align=center;labelBackgroundColor=#ffffff;verticalAlign=top;strokeWidth=2;strokeColor=#0080F0;shadow=0;dashed=0;shape=mxgraph.ios7.icons.smartphone;" vertex="1" parent="1">
          <mxGeometry x="340" y="320" width="70" height="130" as="geometry" />
        </mxCell>
        <mxCell id="ltvdPR_ZTobaKSjVNCAf-11" value="" style="image;html=1;image=img/lib/clip_art/people/Worker_Man_128x128.png" vertex="1" parent="1">
          <mxGeometry x="40" y="350" width="80" height="80" as="geometry" />
        </mxCell>
        <mxCell id="ltvdPR_ZTobaKSjVNCAf-12" value="User" style="text;html=1;align=center;verticalAlign=middle;whiteSpace=wrap;rounded=0;" vertex="1" parent="1">
          <mxGeometry x="50" y="440" width="60" height="30" as="geometry" />
        </mxCell>
        <mxCell id="ltvdPR_ZTobaKSjVNCAf-13" value="Application" style="text;html=1;align=center;verticalAlign=middle;whiteSpace=wrap;rounded=0;" vertex="1" parent="1">
          <mxGeometry x="340" y="460" width="60" height="30" as="geometry" />
        </mxCell>
        <mxCell id="ltvdPR_ZTobaKSjVNCAf-14" value="" style="endArrow=classic;startArrow=classic;html=1;rounded=0;entryX=-0.025;entryY=0.562;entryDx=0;entryDy=0;entryPerimeter=0;" edge="1" parent="1" source="ltvdPR_ZTobaKSjVNCAf-11" target="ltvdPR_ZTobaKSjVNCAf-10">
          <mxGeometry width="50" height="50" relative="1" as="geometry">
            <mxPoint x="400" y="310" as="sourcePoint" />
            <mxPoint x="450" y="260" as="targetPoint" />
          </mxGeometry>
        </mxCell>
        <mxCell id="ltvdPR_ZTobaKSjVNCAf-16" value="" style="endArrow=classic;startArrow=classic;html=1;rounded=0;exitX=0.197;exitY=-0.011;exitDx=0;exitDy=0;exitPerimeter=0;entryX=0.164;entryY=0.972;entryDx=0;entryDy=0;entryPerimeter=0;" edge="1" parent="1" source="ltvdPR_ZTobaKSjVNCAf-10" target="ltvdPR_ZTobaKSjVNCAf-3">
          <mxGeometry width="50" height="50" relative="1" as="geometry">
            <mxPoint x="400" y="310" as="sourcePoint" />
            <mxPoint x="450" y="260" as="targetPoint" />
          </mxGeometry>
        </mxCell>
      </root>
    </mxGraphModel>
  </diagram>
</mxfile>
